<mxfile host="Electron" agent="Mozilla/5.0 (Windows NT 10.0; Win64; x64) AppleWebKit/537.36 (KHTML, like Gecko) draw.io/25.0.2 Chrome/128.0.6613.186 Electron/32.2.5 Safari/537.36" version="25.0.2">
  <diagram id="C5RBs43oDa-KdzZeNtuy" name="Page-1">
    <mxGraphModel dx="4072" dy="2605" grid="1" gridSize="10" guides="1" tooltips="1" connect="1" arrows="1" fold="1" page="1" pageScale="1" pageWidth="827" pageHeight="1169" math="0" shadow="0">
      <root>
        <mxCell id="WIyWlLk6GJQsqaUBKTNV-0" />
        <mxCell id="WIyWlLk6GJQsqaUBKTNV-1" parent="WIyWlLk6GJQsqaUBKTNV-0" />
        <mxCell id="YD-9-609h7HuIPEXH6Xw-1" value="hasDistrict" style="edgeStyle=orthogonalEdgeStyle;rounded=0;orthogonalLoop=1;jettySize=auto;html=1;entryX=1;entryY=0.5;entryDx=0;entryDy=0;exitX=0;exitY=1;exitDx=0;exitDy=0;" parent="WIyWlLk6GJQsqaUBKTNV-1" source="QVhbbQfxDJ9Yx0kp6-2R-0" target="YD-9-609h7HuIPEXH6Xw-0" edge="1">
          <mxGeometry x="-0.3032" relative="1" as="geometry">
            <Array as="points">
              <mxPoint y="297" />
              <mxPoint y="445" />
            </Array>
            <mxPoint as="offset" />
          </mxGeometry>
        </mxCell>
        <mxCell id="42lQZNa5xMC4ZWkXNp76-3" value="hasProject" style="edgeStyle=orthogonalEdgeStyle;rounded=0;orthogonalLoop=1;jettySize=auto;html=1;entryX=0;entryY=0.5;entryDx=0;entryDy=0;" parent="WIyWlLk6GJQsqaUBKTNV-1" source="QVhbbQfxDJ9Yx0kp6-2R-0" target="YD-9-609h7HuIPEXH6Xw-2" edge="1">
          <mxGeometry x="0.0222" relative="1" as="geometry">
            <Array as="points">
              <mxPoint x="1094" y="265" />
            </Array>
            <mxPoint as="offset" />
            <mxPoint x="1050" y="290" as="targetPoint" />
          </mxGeometry>
        </mxCell>
        <mxCell id="QVhbbQfxDJ9Yx0kp6-2R-0" value="Road" style="ellipse;whiteSpace=wrap;html=1;fillColor=#fff2cc;strokeColor=#d6b656;" parent="WIyWlLk6GJQsqaUBKTNV-1" vertex="1">
          <mxGeometry x="374" y="220" width="180" height="90" as="geometry" />
        </mxCell>
        <mxCell id="QVhbbQfxDJ9Yx0kp6-2R-4" value="hasNode" style="edgeStyle=orthogonalEdgeStyle;rounded=0;orthogonalLoop=1;jettySize=auto;html=1;exitX=0.368;exitY=1.001;exitDx=0;exitDy=0;exitPerimeter=0;entryX=0.367;entryY=-0.014;entryDx=0;entryDy=0;entryPerimeter=0;" parent="WIyWlLk6GJQsqaUBKTNV-1" source="QVhbbQfxDJ9Yx0kp6-2R-1" target="QVhbbQfxDJ9Yx0kp6-2R-2" edge="1">
          <mxGeometry relative="1" as="geometry" />
        </mxCell>
        <mxCell id="YD-9-609h7HuIPEXH6Xw-4" value="hasRoadType" style="edgeStyle=orthogonalEdgeStyle;rounded=0;orthogonalLoop=1;jettySize=auto;html=1;entryX=0.5;entryY=1;entryDx=0;entryDy=0;exitX=1;exitY=0.5;exitDx=0;exitDy=0;" parent="WIyWlLk6GJQsqaUBKTNV-1" source="QVhbbQfxDJ9Yx0kp6-2R-0" target="YD-9-609h7HuIPEXH6Xw-3" edge="1">
          <mxGeometry x="-0.0057" relative="1" as="geometry">
            <mxPoint as="offset" />
            <mxPoint x="380" y="288" as="sourcePoint" />
            <Array as="points">
              <mxPoint x="554" y="160" />
              <mxPoint x="840" y="160" />
            </Array>
          </mxGeometry>
        </mxCell>
        <mxCell id="YD-9-609h7HuIPEXH6Xw-35" value="hasArchToRoad" style="edgeStyle=orthogonalEdgeStyle;rounded=0;orthogonalLoop=1;jettySize=auto;html=1;entryX=0;entryY=0;entryDx=0;entryDy=0;exitX=0;exitY=1;exitDx=0;exitDy=0;" parent="WIyWlLk6GJQsqaUBKTNV-1" source="QVhbbQfxDJ9Yx0kp6-2R-0" target="QVhbbQfxDJ9Yx0kp6-2R-1" edge="1">
          <mxGeometry x="-0.024" relative="1" as="geometry">
            <Array as="points">
              <mxPoint x="400" y="320" />
              <mxPoint x="280" y="320" />
              <mxPoint x="280" y="450" />
              <mxPoint x="400" y="450" />
            </Array>
            <mxPoint as="offset" />
            <mxPoint x="340" y="390" as="sourcePoint" />
          </mxGeometry>
        </mxCell>
        <mxCell id="YD-9-609h7HuIPEXH6Xw-36" value="hasArchFromRoad" style="edgeStyle=orthogonalEdgeStyle;rounded=0;orthogonalLoop=1;jettySize=auto;html=1;entryX=1;entryY=0;entryDx=0;entryDy=0;exitX=1;exitY=1;exitDx=0;exitDy=0;" parent="WIyWlLk6GJQsqaUBKTNV-1" source="QVhbbQfxDJ9Yx0kp6-2R-0" target="QVhbbQfxDJ9Yx0kp6-2R-1" edge="1">
          <mxGeometry x="-0.0237" relative="1" as="geometry">
            <Array as="points">
              <mxPoint x="528" y="320" />
              <mxPoint x="650" y="320" />
              <mxPoint x="650" y="450" />
              <mxPoint x="528" y="450" />
            </Array>
            <mxPoint as="offset" />
            <mxPoint x="630" y="425" as="sourcePoint" />
          </mxGeometry>
        </mxCell>
        <mxCell id="8UH8jQIATSSK5zJPE66o-1" value="hasDeploymentDate" style="edgeStyle=orthogonalEdgeStyle;rounded=0;orthogonalLoop=1;jettySize=auto;html=1;exitX=1;exitY=1;exitDx=0;exitDy=0;entryX=0.5;entryY=0;entryDx=0;entryDy=0;" parent="WIyWlLk6GJQsqaUBKTNV-1" source="QVhbbQfxDJ9Yx0kp6-2R-1" target="YD-9-609h7HuIPEXH6Xw-22" edge="1">
          <mxGeometry x="-0.104" relative="1" as="geometry">
            <Array as="points">
              <mxPoint x="528" y="550" />
              <mxPoint x="810" y="550" />
            </Array>
            <mxPoint as="offset" />
          </mxGeometry>
        </mxCell>
        <mxCell id="QVhbbQfxDJ9Yx0kp6-2R-1" value="RoadArch" style="ellipse;whiteSpace=wrap;html=1;fillColor=#fff2cc;strokeColor=#d6b656;" parent="WIyWlLk6GJQsqaUBKTNV-1" vertex="1">
          <mxGeometry x="374" y="460" width="180" height="90" as="geometry" />
        </mxCell>
        <mxCell id="QVhbbQfxDJ9Yx0kp6-2R-2" value="RoadNode" style="ellipse;whiteSpace=wrap;html=1;fillColor=#fff2cc;strokeColor=#d6b656;" parent="WIyWlLk6GJQsqaUBKTNV-1" vertex="1">
          <mxGeometry x="374" y="670" width="180" height="90" as="geometry" />
        </mxCell>
        <mxCell id="QVhbbQfxDJ9Yx0kp6-2R-9" value="hasLength" style="whiteSpace=wrap;html=1;fillColor=#d5e8d4;strokeColor=#82b366;" parent="WIyWlLk6GJQsqaUBKTNV-1" vertex="1">
          <mxGeometry x="770" y="350" width="120" height="30" as="geometry" />
        </mxCell>
        <mxCell id="YD-9-609h7HuIPEXH6Xw-0" value="District" style="ellipse;whiteSpace=wrap;html=1;fillColor=#fff2cc;strokeColor=#d6b656;" parent="WIyWlLk6GJQsqaUBKTNV-1" vertex="1">
          <mxGeometry x="-350" y="400" width="180" height="90" as="geometry" />
        </mxCell>
        <mxCell id="YD-9-609h7HuIPEXH6Xw-11" value="" style="edgeStyle=orthogonalEdgeStyle;rounded=0;orthogonalLoop=1;jettySize=auto;html=1;exitX=0;exitY=0;exitDx=0;exitDy=0;entryX=1;entryY=0.5;entryDx=0;entryDy=0;" parent="WIyWlLk6GJQsqaUBKTNV-1" source="YD-9-609h7HuIPEXH6Xw-2" target="YD-9-609h7HuIPEXH6Xw-10" edge="1">
          <mxGeometry relative="1" as="geometry">
            <Array as="points">
              <mxPoint x="1110" y="233" />
              <mxPoint x="1110" y="145" />
            </Array>
          </mxGeometry>
        </mxCell>
        <mxCell id="YD-9-609h7HuIPEXH6Xw-18" value="hasProximityArea" style="edgeStyle=orthogonalEdgeStyle;rounded=0;orthogonalLoop=1;jettySize=auto;html=1;exitX=1;exitY=1;exitDx=0;exitDy=0;entryX=0;entryY=0.5;entryDx=0;entryDy=0;" parent="WIyWlLk6GJQsqaUBKTNV-1" source="YD-9-609h7HuIPEXH6Xw-2" target="dnGMem7ugePHwDDMQrrP-42" edge="1">
          <mxGeometry x="-0.0761" relative="1" as="geometry">
            <mxPoint x="1334" y="320" as="targetPoint" />
            <Array as="points">
              <mxPoint x="1560" y="297" />
              <mxPoint x="1560" y="1070" />
              <mxPoint x="-1440" y="1070" />
              <mxPoint x="-1440" y="285" />
            </Array>
            <mxPoint as="offset" />
          </mxGeometry>
        </mxCell>
        <mxCell id="YD-9-609h7HuIPEXH6Xw-26" value="isStartYear" style="edgeStyle=orthogonalEdgeStyle;rounded=0;orthogonalLoop=1;jettySize=auto;html=1;exitX=0;exitY=0.5;exitDx=0;exitDy=0;entryX=0;entryY=1;entryDx=0;entryDy=0;" parent="WIyWlLk6GJQsqaUBKTNV-1" source="42lQZNa5xMC4ZWkXNp76-2" target="YD-9-609h7HuIPEXH6Xw-2" edge="1">
          <mxGeometry relative="1" as="geometry">
            <mxPoint as="offset" />
            <mxPoint x="1300" y="400" as="targetPoint" />
            <Array as="points">
              <mxPoint x="1070" y="615" />
              <mxPoint x="1070" y="350" />
              <mxPoint x="1120" y="350" />
            </Array>
          </mxGeometry>
        </mxCell>
        <mxCell id="8UH8jQIATSSK5zJPE66o-0" style="edgeStyle=orthogonalEdgeStyle;rounded=0;orthogonalLoop=1;jettySize=auto;html=1;exitX=1;exitY=0;exitDx=0;exitDy=0;entryX=0;entryY=0.5;entryDx=0;entryDy=0;" parent="WIyWlLk6GJQsqaUBKTNV-1" source="YD-9-609h7HuIPEXH6Xw-2" target="YD-9-609h7HuIPEXH6Xw-19" edge="1">
          <mxGeometry relative="1" as="geometry">
            <Array as="points">
              <mxPoint x="1260" y="233" />
              <mxPoint x="1260" y="145" />
            </Array>
          </mxGeometry>
        </mxCell>
        <mxCell id="YD-9-609h7HuIPEXH6Xw-2" value="Project30" style="ellipse;whiteSpace=wrap;html=1;fillColor=#fff2cc;strokeColor=#d6b656;" parent="WIyWlLk6GJQsqaUBKTNV-1" vertex="1">
          <mxGeometry x="1094" y="220" width="180" height="90" as="geometry" />
        </mxCell>
        <mxCell id="YD-9-609h7HuIPEXH6Xw-3" value="RoadType" style="ellipse;whiteSpace=wrap;html=1;fillColor=#fff2cc;strokeColor=#d6b656;" parent="WIyWlLk6GJQsqaUBKTNV-1" vertex="1">
          <mxGeometry x="750" y="-60" width="180" height="90" as="geometry" />
        </mxCell>
        <mxCell id="YD-9-609h7HuIPEXH6Xw-8" value="ProjectType" style="ellipse;whiteSpace=wrap;html=1;fillColor=#fff2cc;strokeColor=#d6b656;" parent="WIyWlLk6GJQsqaUBKTNV-1" vertex="1">
          <mxGeometry x="1094" y="-60" width="180" height="90" as="geometry" />
        </mxCell>
        <mxCell id="YD-9-609h7HuIPEXH6Xw-10" value="hasDescription" style="whiteSpace=wrap;html=1;fillColor=#d5e8d4;strokeColor=#82b366;" parent="WIyWlLk6GJQsqaUBKTNV-1" vertex="1">
          <mxGeometry x="950" y="130" width="140" height="30" as="geometry" />
        </mxCell>
        <mxCell id="YD-9-609h7HuIPEXH6Xw-19" value="hasStatus" style="whiteSpace=wrap;html=1;fillColor=#d5e8d4;strokeColor=#82b366;" parent="WIyWlLk6GJQsqaUBKTNV-1" vertex="1">
          <mxGeometry x="1280" y="130" width="140" height="30" as="geometry" />
        </mxCell>
        <mxCell id="42lQZNa5xMC4ZWkXNp76-1" style="edgeStyle=orthogonalEdgeStyle;rounded=0;orthogonalLoop=1;jettySize=auto;html=1;entryX=0.5;entryY=0;entryDx=0;entryDy=0;" parent="WIyWlLk6GJQsqaUBKTNV-1" source="YD-9-609h7HuIPEXH6Xw-22" target="42lQZNa5xMC4ZWkXNp76-0" edge="1">
          <mxGeometry relative="1" as="geometry" />
        </mxCell>
        <mxCell id="YD-9-609h7HuIPEXH6Xw-22" value="Date" style="ellipse;whiteSpace=wrap;html=1;fillColor=#fff2cc;strokeColor=#d6b656;" parent="WIyWlLk6GJQsqaUBKTNV-1" vertex="1">
          <mxGeometry x="720" y="780" width="180" height="90" as="geometry" />
        </mxCell>
        <mxCell id="YD-9-609h7HuIPEXH6Xw-24" value="hasStartYear" style="edgeStyle=orthogonalEdgeStyle;rounded=0;orthogonalLoop=1;jettySize=auto;html=1;exitX=0.367;exitY=0.986;exitDx=0;exitDy=0;entryX=0;entryY=0;entryDx=0;entryDy=0;exitPerimeter=0;" parent="WIyWlLk6GJQsqaUBKTNV-1" source="YD-9-609h7HuIPEXH6Xw-2" target="42lQZNa5xMC4ZWkXNp76-2" edge="1">
          <mxGeometry x="0.3872" relative="1" as="geometry">
            <mxPoint as="offset" />
            <Array as="points">
              <mxPoint x="1160" y="380" />
              <mxPoint x="1120" y="380" />
            </Array>
          </mxGeometry>
        </mxCell>
        <mxCell id="YD-9-609h7HuIPEXH6Xw-43" value="hasImpositionDate" style="edgeStyle=orthogonalEdgeStyle;rounded=0;orthogonalLoop=1;jettySize=auto;html=1;" parent="WIyWlLk6GJQsqaUBKTNV-1" source="YD-9-609h7HuIPEXH6Xw-41" target="YD-9-609h7HuIPEXH6Xw-22" edge="1">
          <mxGeometry relative="1" as="geometry" />
        </mxCell>
        <mxCell id="YD-9-609h7HuIPEXH6Xw-45" value="" style="edgeStyle=orthogonalEdgeStyle;rounded=0;orthogonalLoop=1;jettySize=auto;html=1;" parent="WIyWlLk6GJQsqaUBKTNV-1" source="YD-9-609h7HuIPEXH6Xw-41" target="YD-9-609h7HuIPEXH6Xw-44" edge="1">
          <mxGeometry relative="1" as="geometry" />
        </mxCell>
        <mxCell id="YD-9-609h7HuIPEXH6Xw-41" value="SpeedLimit30" style="ellipse;whiteSpace=wrap;html=1;fillColor=#fff2cc;strokeColor=#d6b656;" parent="WIyWlLk6GJQsqaUBKTNV-1" vertex="1">
          <mxGeometry x="10" y="780" width="180" height="90" as="geometry" />
        </mxCell>
        <mxCell id="YD-9-609h7HuIPEXH6Xw-42" value="hasSpeedLimit" style="edgeStyle=orthogonalEdgeStyle;rounded=0;orthogonalLoop=1;jettySize=auto;html=1;entryX=0.5;entryY=0;entryDx=0;entryDy=0;exitX=0;exitY=1;exitDx=0;exitDy=0;" parent="WIyWlLk6GJQsqaUBKTNV-1" source="QVhbbQfxDJ9Yx0kp6-2R-1" target="YD-9-609h7HuIPEXH6Xw-41" edge="1">
          <mxGeometry x="0.6687" relative="1" as="geometry">
            <Array as="points">
              <mxPoint x="400" y="550" />
              <mxPoint x="100" y="550" />
            </Array>
            <mxPoint as="offset" />
          </mxGeometry>
        </mxCell>
        <mxCell id="YD-9-609h7HuIPEXH6Xw-44" value="speedLimit" style="whiteSpace=wrap;html=1;fillColor=#d5e8d4;strokeColor=#82b366;" parent="WIyWlLk6GJQsqaUBKTNV-1" vertex="1">
          <mxGeometry x="30" y="937.5" width="140" height="35" as="geometry" />
        </mxCell>
        <mxCell id="42lQZNa5xMC4ZWkXNp76-0" value="hasCalendarDate" style="whiteSpace=wrap;html=1;fillColor=#d5e8d4;strokeColor=#82b366;" parent="WIyWlLk6GJQsqaUBKTNV-1" vertex="1">
          <mxGeometry x="740" y="940" width="140" height="30" as="geometry" />
        </mxCell>
        <mxCell id="42lQZNa5xMC4ZWkXNp76-2" value="Year" style="ellipse;whiteSpace=wrap;html=1;fillColor=#fff2cc;strokeColor=#d6b656;" parent="WIyWlLk6GJQsqaUBKTNV-1" vertex="1">
          <mxGeometry x="1094" y="570" width="180" height="90" as="geometry" />
        </mxCell>
        <mxCell id="dnGMem7ugePHwDDMQrrP-1" value="Coil" style="ellipse;whiteSpace=wrap;html=1;fillColor=#fff2cc;strokeColor=#d6b656;" parent="WIyWlLk6GJQsqaUBKTNV-1" vertex="1">
          <mxGeometry x="164" y="-60" width="180" height="90" as="geometry" />
        </mxCell>
        <mxCell id="dnGMem7ugePHwDDMQrrP-3" value="hasID" style="whiteSpace=wrap;html=1;fillColor=#d5e8d4;strokeColor=#82b366;" parent="WIyWlLk6GJQsqaUBKTNV-1" vertex="1">
          <mxGeometry x="440" y="-30" width="140" height="30" as="geometry" />
        </mxCell>
        <mxCell id="dnGMem7ugePHwDDMQrrP-4" value="Level" style="ellipse;whiteSpace=wrap;html=1;fillColor=#fff2cc;strokeColor=#d6b656;" parent="WIyWlLk6GJQsqaUBKTNV-1" vertex="1">
          <mxGeometry x="-260" y="90" width="180" height="90" as="geometry" />
        </mxCell>
        <mxCell id="dnGMem7ugePHwDDMQrrP-5" value="Type" style="ellipse;whiteSpace=wrap;html=1;fillColor=#fff2cc;strokeColor=#d6b656;" parent="WIyWlLk6GJQsqaUBKTNV-1" vertex="1">
          <mxGeometry x="-260" y="-60" width="180" height="90" as="geometry" />
        </mxCell>
        <mxCell id="dnGMem7ugePHwDDMQrrP-6" value="hasLevel" style="edgeStyle=orthogonalEdgeStyle;rounded=0;orthogonalLoop=1;jettySize=auto;html=1;exitX=0;exitY=1;exitDx=0;exitDy=0;entryX=1;entryY=0.5;entryDx=0;entryDy=0;" parent="WIyWlLk6GJQsqaUBKTNV-1" source="dnGMem7ugePHwDDMQrrP-1" target="dnGMem7ugePHwDDMQrrP-4" edge="1">
          <mxGeometry x="0.3537" relative="1" as="geometry">
            <mxPoint x="424" y="120" as="sourcePoint" />
            <mxPoint x="174" y="210" as="targetPoint" />
            <Array as="points">
              <mxPoint x="190" y="135" />
            </Array>
            <mxPoint as="offset" />
          </mxGeometry>
        </mxCell>
        <mxCell id="dnGMem7ugePHwDDMQrrP-7" value="hasType" style="edgeStyle=orthogonalEdgeStyle;rounded=0;orthogonalLoop=1;jettySize=auto;html=1;entryX=1;entryY=0.5;entryDx=0;entryDy=0;exitX=0;exitY=0.5;exitDx=0;exitDy=0;" parent="WIyWlLk6GJQsqaUBKTNV-1" source="dnGMem7ugePHwDDMQrrP-1" target="dnGMem7ugePHwDDMQrrP-5" edge="1">
          <mxGeometry relative="1" as="geometry">
            <mxPoint x="454" y="-140" as="sourcePoint" />
            <mxPoint x="204" y="-50" as="targetPoint" />
          </mxGeometry>
        </mxCell>
        <mxCell id="dnGMem7ugePHwDDMQrrP-10" value="isPlaced" style="edgeStyle=orthogonalEdgeStyle;rounded=0;orthogonalLoop=1;jettySize=auto;html=1;exitX=0;exitY=0;exitDx=0;exitDy=0;entryX=0.5;entryY=1;entryDx=0;entryDy=0;" parent="WIyWlLk6GJQsqaUBKTNV-1" source="QVhbbQfxDJ9Yx0kp6-2R-0" target="dnGMem7ugePHwDDMQrrP-1" edge="1">
          <mxGeometry x="-0.2355" relative="1" as="geometry">
            <mxPoint x="344" y="160" as="sourcePoint" />
            <mxPoint x="94" y="250" as="targetPoint" />
            <Array as="points">
              <mxPoint x="400" y="160" />
              <mxPoint x="254" y="160" />
            </Array>
            <mxPoint as="offset" />
          </mxGeometry>
        </mxCell>
        <mxCell id="dnGMem7ugePHwDDMQrrP-11" value="isOn" style="edgeStyle=orthogonalEdgeStyle;rounded=0;orthogonalLoop=1;jettySize=auto;html=1;exitX=0.603;exitY=1.011;exitDx=0;exitDy=0;exitPerimeter=0;entryX=0.5;entryY=0;entryDx=0;entryDy=0;" parent="WIyWlLk6GJQsqaUBKTNV-1" source="dnGMem7ugePHwDDMQrrP-1" target="QVhbbQfxDJ9Yx0kp6-2R-0" edge="1">
          <mxGeometry x="0.1904" relative="1" as="geometry">
            <mxPoint x="593" y="110" as="sourcePoint" />
            <mxPoint x="374" y="180" as="targetPoint" />
            <Array as="points">
              <mxPoint x="272" y="120" />
              <mxPoint x="464" y="120" />
            </Array>
            <mxPoint as="offset" />
          </mxGeometry>
        </mxCell>
        <mxCell id="dnGMem7ugePHwDDMQrrP-12" value="PollutionCoil" style="ellipse;whiteSpace=wrap;html=1;fillColor=#fff2cc;strokeColor=#d6b656;" parent="WIyWlLk6GJQsqaUBKTNV-1" vertex="1">
          <mxGeometry x="-6" y="-220" width="180" height="90" as="geometry" />
        </mxCell>
        <mxCell id="dnGMem7ugePHwDDMQrrP-13" value="SimpleCoil" style="ellipse;whiteSpace=wrap;html=1;fillColor=#fff2cc;strokeColor=#d6b656;" parent="WIyWlLk6GJQsqaUBKTNV-1" vertex="1">
          <mxGeometry x="344" y="-220" width="180" height="90" as="geometry" />
        </mxCell>
        <mxCell id="dnGMem7ugePHwDDMQrrP-14" value="PollutionStation" style="ellipse;whiteSpace=wrap;html=1;fillColor=#fff2cc;strokeColor=#d6b656;" parent="WIyWlLk6GJQsqaUBKTNV-1" vertex="1">
          <mxGeometry x="-276" y="-370" width="180" height="90" as="geometry" />
        </mxCell>
        <mxCell id="dnGMem7ugePHwDDMQrrP-15" value="VehicleDetection" style="ellipse;whiteSpace=wrap;html=1;fillColor=#fff2cc;strokeColor=#d6b656;" parent="WIyWlLk6GJQsqaUBKTNV-1" vertex="1">
          <mxGeometry x="594" y="-480" width="180" height="90" as="geometry" />
        </mxCell>
        <mxCell id="dnGMem7ugePHwDDMQrrP-16" value="Period" style="ellipse;whiteSpace=wrap;html=1;fillColor=#fff2cc;strokeColor=#d6b656;" parent="WIyWlLk6GJQsqaUBKTNV-1" vertex="1">
          <mxGeometry x="154" y="-760" width="180" height="90" as="geometry" />
        </mxCell>
        <mxCell id="dnGMem7ugePHwDDMQrrP-17" value="ChemicalDetection" style="ellipse;whiteSpace=wrap;html=1;fillColor=#fff2cc;strokeColor=#d6b656;" parent="WIyWlLk6GJQsqaUBKTNV-1" vertex="1">
          <mxGeometry x="-276" y="-589" width="180" height="90" as="geometry" />
        </mxCell>
        <mxCell id="dnGMem7ugePHwDDMQrrP-18" value="subClassOf" style="edgeStyle=orthogonalEdgeStyle;rounded=0;orthogonalLoop=1;jettySize=auto;html=1;exitX=0;exitY=0;exitDx=0;exitDy=0;entryX=0.5;entryY=1;entryDx=0;entryDy=0;" parent="WIyWlLk6GJQsqaUBKTNV-1" source="dnGMem7ugePHwDDMQrrP-1" target="dnGMem7ugePHwDDMQrrP-12" edge="1">
          <mxGeometry relative="1" as="geometry">
            <mxPoint x="107" y="23" as="sourcePoint" />
            <mxPoint x="-39" y="-180" as="targetPoint" />
          </mxGeometry>
        </mxCell>
        <mxCell id="dnGMem7ugePHwDDMQrrP-19" value="subClassOf" style="edgeStyle=orthogonalEdgeStyle;rounded=0;orthogonalLoop=1;jettySize=auto;html=1;exitX=1;exitY=0;exitDx=0;exitDy=0;entryX=0.5;entryY=1;entryDx=0;entryDy=0;" parent="WIyWlLk6GJQsqaUBKTNV-1" source="dnGMem7ugePHwDDMQrrP-1" target="dnGMem7ugePHwDDMQrrP-13" edge="1">
          <mxGeometry relative="1" as="geometry">
            <mxPoint x="344" y="-117" as="sourcePoint" />
            <mxPoint x="238" y="-200" as="targetPoint" />
          </mxGeometry>
        </mxCell>
        <mxCell id="dnGMem7ugePHwDDMQrrP-20" value="isNearTo" style="edgeStyle=orthogonalEdgeStyle;rounded=0;orthogonalLoop=1;jettySize=auto;html=1;exitX=0.5;exitY=1;exitDx=0;exitDy=0;entryX=0;entryY=0.5;entryDx=0;entryDy=0;" parent="WIyWlLk6GJQsqaUBKTNV-1" source="dnGMem7ugePHwDDMQrrP-14" target="dnGMem7ugePHwDDMQrrP-12" edge="1">
          <mxGeometry relative="1" as="geometry">
            <mxPoint x="-110" y="-147" as="sourcePoint" />
            <mxPoint x="-216" y="-230" as="targetPoint" />
          </mxGeometry>
        </mxCell>
        <mxCell id="dnGMem7ugePHwDDMQrrP-21" value="hasRegister" style="edgeStyle=orthogonalEdgeStyle;rounded=0;orthogonalLoop=1;jettySize=auto;html=1;exitX=0.5;exitY=0;exitDx=0;exitDy=0;entryX=0.5;entryY=1;entryDx=0;entryDy=0;" parent="WIyWlLk6GJQsqaUBKTNV-1" source="dnGMem7ugePHwDDMQrrP-14" target="dnGMem7ugePHwDDMQrrP-17" edge="1">
          <mxGeometry relative="1" as="geometry">
            <mxPoint x="40" y="-390.48" as="sourcePoint" />
            <mxPoint x="-66" y="-473.48" as="targetPoint" />
          </mxGeometry>
        </mxCell>
        <mxCell id="dnGMem7ugePHwDDMQrrP-22" value="isRegistered" style="edgeStyle=orthogonalEdgeStyle;rounded=0;orthogonalLoop=1;jettySize=auto;html=1;exitX=1;exitY=0.5;exitDx=0;exitDy=0;entryX=1;entryY=0.5;entryDx=0;entryDy=0;" parent="WIyWlLk6GJQsqaUBKTNV-1" source="dnGMem7ugePHwDDMQrrP-17" target="dnGMem7ugePHwDDMQrrP-14" edge="1">
          <mxGeometry relative="1" as="geometry">
            <mxPoint x="50" y="-416" as="sourcePoint" />
            <mxPoint x="-56" y="-499" as="targetPoint" />
            <Array as="points">
              <mxPoint x="-40" y="-544" />
              <mxPoint x="-40" y="-325" />
            </Array>
          </mxGeometry>
        </mxCell>
        <mxCell id="dnGMem7ugePHwDDMQrrP-23" value="ChemicalElement" style="ellipse;whiteSpace=wrap;html=1;fillColor=#fff2cc;strokeColor=#d6b656;" parent="WIyWlLk6GJQsqaUBKTNV-1" vertex="1">
          <mxGeometry x="-616" y="-589" width="180" height="90" as="geometry" />
        </mxCell>
        <mxCell id="dnGMem7ugePHwDDMQrrP-24" value="DayWeek" style="ellipse;whiteSpace=wrap;html=1;fillColor=#fff2cc;strokeColor=#d6b656;" parent="WIyWlLk6GJQsqaUBKTNV-1" vertex="1">
          <mxGeometry x="154" y="-980" width="180" height="90" as="geometry" />
        </mxCell>
        <mxCell id="dnGMem7ugePHwDDMQrrP-25" value="onDay" style="edgeStyle=orthogonalEdgeStyle;rounded=0;orthogonalLoop=1;jettySize=auto;html=1;exitX=0.5;exitY=0;exitDx=0;exitDy=0;entryX=0.5;entryY=1;entryDx=0;entryDy=0;" parent="WIyWlLk6GJQsqaUBKTNV-1" source="dnGMem7ugePHwDDMQrrP-16" target="dnGMem7ugePHwDDMQrrP-24" edge="1">
          <mxGeometry relative="1" as="geometry">
            <mxPoint x="434" y="-810" as="sourcePoint" />
            <mxPoint x="434" y="-965" as="targetPoint" />
          </mxGeometry>
        </mxCell>
        <mxCell id="dnGMem7ugePHwDDMQrrP-26" value="hasDetect" style="edgeStyle=orthogonalEdgeStyle;rounded=0;orthogonalLoop=1;jettySize=auto;html=1;exitX=0;exitY=0;exitDx=0;exitDy=0;entryX=1;entryY=0;entryDx=0;entryDy=0;" parent="WIyWlLk6GJQsqaUBKTNV-1" source="dnGMem7ugePHwDDMQrrP-17" target="dnGMem7ugePHwDDMQrrP-23" edge="1">
          <mxGeometry relative="1" as="geometry">
            <mxPoint x="-216" y="-710" as="sourcePoint" />
            <mxPoint x="-216" y="-865" as="targetPoint" />
          </mxGeometry>
        </mxCell>
        <mxCell id="dnGMem7ugePHwDDMQrrP-27" value="isDetected" style="edgeStyle=orthogonalEdgeStyle;rounded=0;orthogonalLoop=1;jettySize=auto;html=1;exitX=1;exitY=1;exitDx=0;exitDy=0;entryX=0;entryY=1;entryDx=0;entryDy=0;" parent="WIyWlLk6GJQsqaUBKTNV-1" source="dnGMem7ugePHwDDMQrrP-23" target="dnGMem7ugePHwDDMQrrP-17" edge="1">
          <mxGeometry relative="1" as="geometry">
            <mxPoint x="-356" y="-480" as="sourcePoint" />
            <mxPoint x="-356" y="-635" as="targetPoint" />
          </mxGeometry>
        </mxCell>
        <mxCell id="dnGMem7ugePHwDDMQrrP-28" value="hasDetectedOnPeriod" style="edgeStyle=orthogonalEdgeStyle;rounded=0;orthogonalLoop=1;jettySize=auto;html=1;exitX=0.5;exitY=0;exitDx=0;exitDy=0;entryX=0;entryY=0;entryDx=0;entryDy=0;" parent="WIyWlLk6GJQsqaUBKTNV-1" source="dnGMem7ugePHwDDMQrrP-17" target="dnGMem7ugePHwDDMQrrP-16" edge="1">
          <mxGeometry x="0.1597" relative="1" as="geometry">
            <mxPoint x="-66" y="-625" as="sourcePoint" />
            <mxPoint x="-66" y="-780" as="targetPoint" />
            <Array as="points">
              <mxPoint x="-186" y="-747" />
            </Array>
            <mxPoint x="-1" as="offset" />
          </mxGeometry>
        </mxCell>
        <mxCell id="dnGMem7ugePHwDDMQrrP-29" value="isDetectedOnPeriod" style="edgeStyle=orthogonalEdgeStyle;rounded=0;orthogonalLoop=1;jettySize=auto;html=1;exitX=0;exitY=0.5;exitDx=0;exitDy=0;entryX=1;entryY=0;entryDx=0;entryDy=0;" parent="WIyWlLk6GJQsqaUBKTNV-1" source="dnGMem7ugePHwDDMQrrP-16" target="dnGMem7ugePHwDDMQrrP-17" edge="1">
          <mxGeometry x="-0.0658" relative="1" as="geometry">
            <mxPoint x="-6" y="-660" as="sourcePoint" />
            <mxPoint x="-6" y="-815" as="targetPoint" />
            <mxPoint as="offset" />
          </mxGeometry>
        </mxCell>
        <mxCell id="dnGMem7ugePHwDDMQrrP-30" value="hasObservedOnPeriod" style="edgeStyle=orthogonalEdgeStyle;rounded=0;orthogonalLoop=1;jettySize=auto;html=1;exitX=0.5;exitY=0;exitDx=0;exitDy=0;entryX=1;entryY=0;entryDx=0;entryDy=0;" parent="WIyWlLk6GJQsqaUBKTNV-1" source="dnGMem7ugePHwDDMQrrP-15" target="dnGMem7ugePHwDDMQrrP-16" edge="1">
          <mxGeometry x="0.309" relative="1" as="geometry">
            <mxPoint x="674" y="-525" as="sourcePoint" />
            <mxPoint x="674" y="-680" as="targetPoint" />
            <Array as="points">
              <mxPoint x="684" y="-747" />
            </Array>
            <mxPoint as="offset" />
          </mxGeometry>
        </mxCell>
        <mxCell id="dnGMem7ugePHwDDMQrrP-31" value="isObservedOnPeriod" style="edgeStyle=orthogonalEdgeStyle;rounded=0;orthogonalLoop=1;jettySize=auto;html=1;exitX=1;exitY=0.5;exitDx=0;exitDy=0;entryX=0;entryY=0;entryDx=0;entryDy=0;" parent="WIyWlLk6GJQsqaUBKTNV-1" source="dnGMem7ugePHwDDMQrrP-16" target="dnGMem7ugePHwDDMQrrP-15" edge="1">
          <mxGeometry x="-0.2665" relative="1" as="geometry">
            <mxPoint x="474" y="-600" as="sourcePoint" />
            <mxPoint x="474" y="-755" as="targetPoint" />
            <mxPoint as="offset" />
          </mxGeometry>
        </mxCell>
        <mxCell id="dnGMem7ugePHwDDMQrrP-32" value="hasObserve" style="edgeStyle=orthogonalEdgeStyle;rounded=0;orthogonalLoop=1;jettySize=auto;html=1;exitX=0.64;exitY=0.029;exitDx=0;exitDy=0;exitPerimeter=0;entryX=0.5;entryY=1;entryDx=0;entryDy=0;" parent="WIyWlLk6GJQsqaUBKTNV-1" source="dnGMem7ugePHwDDMQrrP-1" target="dnGMem7ugePHwDDMQrrP-15" edge="1">
          <mxGeometry x="0.1484" relative="1" as="geometry">
            <mxPoint x="280" y="-70" as="sourcePoint" />
            <mxPoint x="684" y="-350" as="targetPoint" />
            <mxPoint as="offset" />
            <Array as="points">
              <mxPoint x="279" y="-360" />
              <mxPoint x="684" y="-360" />
            </Array>
          </mxGeometry>
        </mxCell>
        <mxCell id="dnGMem7ugePHwDDMQrrP-33" value="isObserved" style="edgeStyle=orthogonalEdgeStyle;rounded=0;orthogonalLoop=1;jettySize=auto;html=1;exitX=0;exitY=0.5;exitDx=0;exitDy=0;entryX=0.5;entryY=0;entryDx=0;entryDy=0;" parent="WIyWlLk6GJQsqaUBKTNV-1" source="dnGMem7ugePHwDDMQrrP-15" target="dnGMem7ugePHwDDMQrrP-1" edge="1">
          <mxGeometry x="-0.4573" relative="1" as="geometry">
            <mxPoint x="484" y="-370" as="sourcePoint" />
            <mxPoint x="484" y="-525" as="targetPoint" />
            <mxPoint as="offset" />
          </mxGeometry>
        </mxCell>
        <mxCell id="dnGMem7ugePHwDDMQrrP-34" value="hasAccuracy" style="whiteSpace=wrap;html=1;fillColor=#d5e8d4;strokeColor=#82b366;" parent="WIyWlLk6GJQsqaUBKTNV-1" vertex="1">
          <mxGeometry x="830" y="-360" width="140" height="30" as="geometry" />
        </mxCell>
        <mxCell id="dnGMem7ugePHwDDMQrrP-35" value="hasCount" style="whiteSpace=wrap;html=1;fillColor=#d5e8d4;strokeColor=#82b366;" parent="WIyWlLk6GJQsqaUBKTNV-1" vertex="1">
          <mxGeometry x="830" y="-540" width="140" height="30" as="geometry" />
        </mxCell>
        <mxCell id="dnGMem7ugePHwDDMQrrP-38" value="startTime" style="whiteSpace=wrap;html=1;fillColor=#d5e8d4;strokeColor=#82b366;" parent="WIyWlLk6GJQsqaUBKTNV-1" vertex="1">
          <mxGeometry x="60" y="-594" width="140" height="30" as="geometry" />
        </mxCell>
        <mxCell id="dnGMem7ugePHwDDMQrrP-39" value="endTime" style="whiteSpace=wrap;html=1;fillColor=#d5e8d4;strokeColor=#82b366;" parent="WIyWlLk6GJQsqaUBKTNV-1" vertex="1">
          <mxGeometry x="290" y="-594" width="140" height="30" as="geometry" />
        </mxCell>
        <mxCell id="dnGMem7ugePHwDDMQrrP-42" value="ProximityArea" style="ellipse;whiteSpace=wrap;html=1;fillColor=#fff2cc;strokeColor=#d6b656;" parent="WIyWlLk6GJQsqaUBKTNV-1" vertex="1">
          <mxGeometry x="-840" y="240" width="180" height="90" as="geometry" />
        </mxCell>
        <mxCell id="dnGMem7ugePHwDDMQrrP-43" value="RoadAccident" style="ellipse;whiteSpace=wrap;html=1;fillColor=#fff2cc;strokeColor=#d6b656;" parent="WIyWlLk6GJQsqaUBKTNV-1" vertex="1">
          <mxGeometry x="-840" y="680" width="180" height="90" as="geometry" />
        </mxCell>
        <mxCell id="dnGMem7ugePHwDDMQrrP-44" value="Driver" style="ellipse;whiteSpace=wrap;html=1;fillColor=#fff2cc;strokeColor=#d6b656;" parent="WIyWlLk6GJQsqaUBKTNV-1" vertex="1">
          <mxGeometry x="-1150" y="550" width="180" height="90" as="geometry" />
        </mxCell>
        <mxCell id="dnGMem7ugePHwDDMQrrP-45" value="Motorcyclist" style="ellipse;whiteSpace=wrap;html=1;fillColor=#fff2cc;strokeColor=#d6b656;" parent="WIyWlLk6GJQsqaUBKTNV-1" vertex="1">
          <mxGeometry x="-1150" y="680" width="180" height="90" as="geometry" />
        </mxCell>
        <mxCell id="dnGMem7ugePHwDDMQrrP-46" value="Pedestrian" style="ellipse;whiteSpace=wrap;html=1;fillColor=#fff2cc;strokeColor=#d6b656;" parent="WIyWlLk6GJQsqaUBKTNV-1" vertex="1">
          <mxGeometry x="-1150" y="800" width="180" height="90" as="geometry" />
        </mxCell>
        <mxCell id="dnGMem7ugePHwDDMQrrP-47" value="Scooter" style="ellipse;whiteSpace=wrap;html=1;fillColor=#fff2cc;strokeColor=#d6b656;" parent="WIyWlLk6GJQsqaUBKTNV-1" vertex="1">
          <mxGeometry x="-1150" y="922.5" width="180" height="90" as="geometry" />
        </mxCell>
        <mxCell id="dnGMem7ugePHwDDMQrrP-48" value="Cyclist" style="ellipse;whiteSpace=wrap;html=1;fillColor=#fff2cc;strokeColor=#d6b656;" parent="WIyWlLk6GJQsqaUBKTNV-1" vertex="1">
          <mxGeometry x="-1150" y="430" width="180" height="90" as="geometry" />
        </mxCell>
        <mxCell id="SAhxeZTdPmEhW_cUlzkI-0" value="subClassOf" style="edgeStyle=orthogonalEdgeStyle;rounded=0;orthogonalLoop=1;jettySize=auto;html=1;exitX=0;exitY=0;exitDx=0;exitDy=0;entryX=1;entryY=0.5;entryDx=0;entryDy=0;" parent="WIyWlLk6GJQsqaUBKTNV-1" source="dnGMem7ugePHwDDMQrrP-43" target="dnGMem7ugePHwDDMQrrP-48" edge="1">
          <mxGeometry relative="1" as="geometry">
            <mxPoint x="-830" y="530" as="sourcePoint" />
            <mxPoint x="-936" y="447" as="targetPoint" />
            <Array as="points">
              <mxPoint x="-814" y="475" />
            </Array>
          </mxGeometry>
        </mxCell>
        <mxCell id="SAhxeZTdPmEhW_cUlzkI-1" value="subClassOf" style="edgeStyle=orthogonalEdgeStyle;rounded=0;orthogonalLoop=1;jettySize=auto;html=1;exitX=0;exitY=0;exitDx=0;exitDy=0;entryX=1;entryY=0.5;entryDx=0;entryDy=0;" parent="WIyWlLk6GJQsqaUBKTNV-1" source="dnGMem7ugePHwDDMQrrP-43" target="dnGMem7ugePHwDDMQrrP-44" edge="1">
          <mxGeometry relative="1" as="geometry">
            <mxPoint x="-880" y="680" as="sourcePoint" />
            <mxPoint x="-986" y="597" as="targetPoint" />
            <Array as="points">
              <mxPoint x="-814" y="660" />
              <mxPoint x="-905" y="660" />
              <mxPoint x="-905" y="595" />
            </Array>
          </mxGeometry>
        </mxCell>
        <mxCell id="SAhxeZTdPmEhW_cUlzkI-2" value="subClassOf" style="edgeStyle=orthogonalEdgeStyle;rounded=0;orthogonalLoop=1;jettySize=auto;html=1;exitX=0;exitY=0.5;exitDx=0;exitDy=0;entryX=1;entryY=0.5;entryDx=0;entryDy=0;" parent="WIyWlLk6GJQsqaUBKTNV-1" source="dnGMem7ugePHwDDMQrrP-43" target="dnGMem7ugePHwDDMQrrP-45" edge="1">
          <mxGeometry relative="1" as="geometry">
            <mxPoint x="-840" y="830" as="sourcePoint" />
            <mxPoint x="-946" y="747" as="targetPoint" />
          </mxGeometry>
        </mxCell>
        <mxCell id="SAhxeZTdPmEhW_cUlzkI-3" value="subClassOf" style="edgeStyle=orthogonalEdgeStyle;rounded=0;orthogonalLoop=1;jettySize=auto;html=1;exitX=0;exitY=1;exitDx=0;exitDy=0;entryX=1;entryY=0.5;entryDx=0;entryDy=0;" parent="WIyWlLk6GJQsqaUBKTNV-1" source="dnGMem7ugePHwDDMQrrP-43" target="dnGMem7ugePHwDDMQrrP-46" edge="1">
          <mxGeometry relative="1" as="geometry">
            <mxPoint x="-820" y="840" as="sourcePoint" />
            <mxPoint x="-926" y="757" as="targetPoint" />
            <Array as="points">
              <mxPoint x="-814" y="800" />
              <mxPoint x="-905" y="800" />
              <mxPoint x="-905" y="845" />
            </Array>
          </mxGeometry>
        </mxCell>
        <mxCell id="SAhxeZTdPmEhW_cUlzkI-4" value="subClassOf" style="edgeStyle=orthogonalEdgeStyle;rounded=0;orthogonalLoop=1;jettySize=auto;html=1;exitX=0;exitY=1;exitDx=0;exitDy=0;entryX=1;entryY=0.5;entryDx=0;entryDy=0;" parent="WIyWlLk6GJQsqaUBKTNV-1" source="dnGMem7ugePHwDDMQrrP-43" target="dnGMem7ugePHwDDMQrrP-47" edge="1">
          <mxGeometry relative="1" as="geometry">
            <mxPoint x="-860" y="930" as="sourcePoint" />
            <mxPoint x="-966" y="847" as="targetPoint" />
            <Array as="points">
              <mxPoint x="-814" y="968" />
            </Array>
          </mxGeometry>
        </mxCell>
        <mxCell id="SAhxeZTdPmEhW_cUlzkI-5" value="recordedInDistrict" style="edgeStyle=orthogonalEdgeStyle;rounded=0;orthogonalLoop=1;jettySize=auto;html=1;exitX=0.5;exitY=1;exitDx=0;exitDy=0;entryX=1;entryY=0.5;entryDx=0;entryDy=0;" parent="WIyWlLk6GJQsqaUBKTNV-1" source="YD-9-609h7HuIPEXH6Xw-0" target="dnGMem7ugePHwDDMQrrP-43" edge="1">
          <mxGeometry relative="1" as="geometry">
            <mxPoint x="-470" y="660" as="sourcePoint" />
            <mxPoint x="-576" y="577" as="targetPoint" />
          </mxGeometry>
        </mxCell>
        <mxCell id="SAhxeZTdPmEhW_cUlzkI-6" value="recordsAccident" style="edgeStyle=orthogonalEdgeStyle;rounded=0;orthogonalLoop=1;jettySize=auto;html=1;exitX=1;exitY=0;exitDx=0;exitDy=0;entryX=0;entryY=1;entryDx=0;entryDy=0;" parent="WIyWlLk6GJQsqaUBKTNV-1" source="dnGMem7ugePHwDDMQrrP-43" target="YD-9-609h7HuIPEXH6Xw-0" edge="1">
          <mxGeometry relative="1" as="geometry">
            <mxPoint x="-420" y="590" as="sourcePoint" />
            <mxPoint x="-450" y="460" as="targetPoint" />
            <Array as="points">
              <mxPoint x="-686" y="650" />
              <mxPoint x="-390" y="650" />
              <mxPoint x="-390" y="477" />
            </Array>
          </mxGeometry>
        </mxCell>
        <mxCell id="SAhxeZTdPmEhW_cUlzkI-7" value="happenedInArea" style="edgeStyle=orthogonalEdgeStyle;rounded=0;orthogonalLoop=1;jettySize=auto;html=1;exitX=0.5;exitY=0;exitDx=0;exitDy=0;entryX=0.5;entryY=1;entryDx=0;entryDy=0;" parent="WIyWlLk6GJQsqaUBKTNV-1" source="dnGMem7ugePHwDDMQrrP-43" target="dnGMem7ugePHwDDMQrrP-42" edge="1">
          <mxGeometry x="0.5429" relative="1" as="geometry">
            <mxPoint x="-630" y="460" as="sourcePoint" />
            <mxPoint x="-736" y="377" as="targetPoint" />
            <mxPoint as="offset" />
          </mxGeometry>
        </mxCell>
        <mxCell id="SAhxeZTdPmEhW_cUlzkI-8" value="belongsToDistrict" style="edgeStyle=orthogonalEdgeStyle;rounded=0;orthogonalLoop=1;jettySize=auto;html=1;exitX=1;exitY=1;exitDx=0;exitDy=0;" parent="WIyWlLk6GJQsqaUBKTNV-1" source="dnGMem7ugePHwDDMQrrP-42" edge="1">
          <mxGeometry relative="1" as="geometry">
            <mxPoint x="-520" y="370" as="sourcePoint" />
            <mxPoint x="-324" y="413" as="targetPoint" />
            <Array as="points">
              <mxPoint x="-680" y="317" />
              <mxPoint x="-680" y="350" />
              <mxPoint x="-390" y="350" />
              <mxPoint x="-390" y="413" />
            </Array>
          </mxGeometry>
        </mxCell>
        <mxCell id="SAhxeZTdPmEhW_cUlzkI-9" value="containsArea" style="edgeStyle=orthogonalEdgeStyle;rounded=0;orthogonalLoop=1;jettySize=auto;html=1;exitX=0.5;exitY=0;exitDx=0;exitDy=0;entryX=1;entryY=0.5;entryDx=0;entryDy=0;" parent="WIyWlLk6GJQsqaUBKTNV-1" source="YD-9-609h7HuIPEXH6Xw-0" target="dnGMem7ugePHwDDMQrrP-42" edge="1">
          <mxGeometry relative="1" as="geometry">
            <mxPoint x="-390" y="260" as="sourcePoint" />
            <mxPoint x="-496" y="177" as="targetPoint" />
          </mxGeometry>
        </mxCell>
        <mxCell id="SAhxeZTdPmEhW_cUlzkI-10" value="hasAccidentYear" style="edgeStyle=orthogonalEdgeStyle;rounded=0;orthogonalLoop=1;jettySize=auto;html=1;exitX=0.5;exitY=1;exitDx=0;exitDy=0;entryX=0.5;entryY=1;entryDx=0;entryDy=0;" parent="WIyWlLk6GJQsqaUBKTNV-1" source="dnGMem7ugePHwDDMQrrP-43" target="42lQZNa5xMC4ZWkXNp76-2" edge="1">
          <mxGeometry x="-0.1204" relative="1" as="geometry">
            <mxPoint x="1214" y="990" as="sourcePoint" />
            <mxPoint x="1108" y="907" as="targetPoint" />
            <Array as="points">
              <mxPoint x="-750" y="1010" />
              <mxPoint x="1184" y="1010" />
            </Array>
            <mxPoint x="-1" as="offset" />
          </mxGeometry>
        </mxCell>
        <mxCell id="SAhxeZTdPmEhW_cUlzkI-12" value="&lt;span style=&quot;font-size: 11px; text-wrap: nowrap; background-color: rgb(213, 232, 212);&quot;&gt;hasChemicalName&lt;/span&gt;" style="whiteSpace=wrap;html=1;fillColor=#d5e8d4;strokeColor=#82b366;" parent="WIyWlLk6GJQsqaUBKTNV-1" vertex="1">
          <mxGeometry x="-596" y="-670" width="140" height="30" as="geometry" />
        </mxCell>
        <mxCell id="SAhxeZTdPmEhW_cUlzkI-13" value="&lt;span style=&quot;font-size: 11px; text-wrap: nowrap; background-color: rgb(213, 232, 212);&quot;&gt;inQuantity&lt;/span&gt;" style="whiteSpace=wrap;html=1;fillColor=#d5e8d4;strokeColor=#82b366;" parent="WIyWlLk6GJQsqaUBKTNV-1" vertex="1">
          <mxGeometry x="-596" y="-740" width="140" height="30" as="geometry" />
        </mxCell>
        <mxCell id="SAhxeZTdPmEhW_cUlzkI-20" value="numberOfAccidents" style="whiteSpace=wrap;html=1;fillColor=#d5e8d4;strokeColor=#82b366;" parent="WIyWlLk6GJQsqaUBKTNV-1" vertex="1">
          <mxGeometry x="-530" y="780" width="140" height="30" as="geometry" />
        </mxCell>
        <mxCell id="SAhxeZTdPmEhW_cUlzkI-21" value="totalNumberOfDeath" style="whiteSpace=wrap;html=1;fillColor=#d5e8d4;strokeColor=#82b366;" parent="WIyWlLk6GJQsqaUBKTNV-1" vertex="1">
          <mxGeometry x="-530" y="830" width="140" height="30" as="geometry" />
        </mxCell>
        <mxCell id="SAhxeZTdPmEhW_cUlzkI-22" value="totalNumberOfInjuries" style="whiteSpace=wrap;html=1;fillColor=#d5e8d4;strokeColor=#82b366;" parent="WIyWlLk6GJQsqaUBKTNV-1" vertex="1">
          <mxGeometry x="-530" y="882.5" width="140" height="30" as="geometry" />
        </mxCell>
        <mxCell id="SAhxeZTdPmEhW_cUlzkI-23" value="" style="edgeStyle=orthogonalEdgeStyle;rounded=0;orthogonalLoop=1;jettySize=auto;html=1;exitX=1;exitY=0.5;exitDx=0;exitDy=0;entryX=0;entryY=0.5;entryDx=0;entryDy=0;" parent="WIyWlLk6GJQsqaUBKTNV-1" source="dnGMem7ugePHwDDMQrrP-1" target="dnGMem7ugePHwDDMQrrP-3" edge="1">
          <mxGeometry relative="1" as="geometry">
            <mxPoint x="510" y="40" as="sourcePoint" />
            <mxPoint x="360" y="100" as="targetPoint" />
          </mxGeometry>
        </mxCell>
        <mxCell id="SAhxeZTdPmEhW_cUlzkI-26" value="" style="edgeStyle=orthogonalEdgeStyle;rounded=0;orthogonalLoop=1;jettySize=auto;html=1;exitX=0;exitY=0;exitDx=0;exitDy=0;entryX=1;entryY=0.5;entryDx=0;entryDy=0;" parent="WIyWlLk6GJQsqaUBKTNV-1" source="dnGMem7ugePHwDDMQrrP-17" target="SAhxeZTdPmEhW_cUlzkI-13" edge="1">
          <mxGeometry relative="1" as="geometry">
            <mxPoint x="-300" y="-730" as="sourcePoint" />
            <mxPoint x="-190" y="-730" as="targetPoint" />
            <Array as="points">
              <mxPoint x="-250" y="-725" />
            </Array>
          </mxGeometry>
        </mxCell>
        <mxCell id="SAhxeZTdPmEhW_cUlzkI-27" value="" style="edgeStyle=orthogonalEdgeStyle;rounded=0;orthogonalLoop=1;jettySize=auto;html=1;exitX=0;exitY=0;exitDx=0;exitDy=0;entryX=1;entryY=0.5;entryDx=0;entryDy=0;" parent="WIyWlLk6GJQsqaUBKTNV-1" source="dnGMem7ugePHwDDMQrrP-17" target="SAhxeZTdPmEhW_cUlzkI-12" edge="1">
          <mxGeometry relative="1" as="geometry">
            <mxPoint x="-340" y="-660" as="sourcePoint" />
            <mxPoint x="-230" y="-660" as="targetPoint" />
            <Array as="points">
              <mxPoint x="-250" y="-655" />
            </Array>
          </mxGeometry>
        </mxCell>
        <mxCell id="SAhxeZTdPmEhW_cUlzkI-28" value="" style="edgeStyle=orthogonalEdgeStyle;rounded=0;orthogonalLoop=1;jettySize=auto;html=1;exitX=1;exitY=1;exitDx=0;exitDy=0;entryX=0;entryY=0.5;entryDx=0;entryDy=0;" parent="WIyWlLk6GJQsqaUBKTNV-1" source="dnGMem7ugePHwDDMQrrP-43" target="SAhxeZTdPmEhW_cUlzkI-22" edge="1">
          <mxGeometry relative="1" as="geometry">
            <mxPoint x="-630" y="840" as="sourcePoint" />
            <mxPoint x="-520" y="840" as="targetPoint" />
            <Array as="points">
              <mxPoint x="-686" y="897" />
            </Array>
          </mxGeometry>
        </mxCell>
        <mxCell id="SAhxeZTdPmEhW_cUlzkI-29" value="" style="edgeStyle=orthogonalEdgeStyle;rounded=0;orthogonalLoop=1;jettySize=auto;html=1;exitX=1;exitY=1;exitDx=0;exitDy=0;entryX=0;entryY=0.5;entryDx=0;entryDy=0;" parent="WIyWlLk6GJQsqaUBKTNV-1" source="dnGMem7ugePHwDDMQrrP-43" target="SAhxeZTdPmEhW_cUlzkI-21" edge="1">
          <mxGeometry relative="1" as="geometry">
            <mxPoint x="-620" y="840" as="sourcePoint" />
            <mxPoint x="-510" y="840" as="targetPoint" />
            <Array as="points">
              <mxPoint x="-686" y="845" />
            </Array>
          </mxGeometry>
        </mxCell>
        <mxCell id="SAhxeZTdPmEhW_cUlzkI-30" value="" style="edgeStyle=orthogonalEdgeStyle;rounded=0;orthogonalLoop=1;jettySize=auto;html=1;exitX=1;exitY=1;exitDx=0;exitDy=0;entryX=0;entryY=0.5;entryDx=0;entryDy=0;" parent="WIyWlLk6GJQsqaUBKTNV-1" source="dnGMem7ugePHwDDMQrrP-43" target="SAhxeZTdPmEhW_cUlzkI-20" edge="1">
          <mxGeometry relative="1" as="geometry">
            <mxPoint x="-600" y="800" as="sourcePoint" />
            <mxPoint x="-490" y="800" as="targetPoint" />
            <Array as="points">
              <mxPoint x="-686" y="795" />
            </Array>
          </mxGeometry>
        </mxCell>
        <mxCell id="SAhxeZTdPmEhW_cUlzkI-31" value="" style="edgeStyle=orthogonalEdgeStyle;rounded=0;orthogonalLoop=1;jettySize=auto;html=1;exitX=1;exitY=0;exitDx=0;exitDy=0;entryX=0;entryY=0.5;entryDx=0;entryDy=0;" parent="WIyWlLk6GJQsqaUBKTNV-1" source="dnGMem7ugePHwDDMQrrP-15" target="dnGMem7ugePHwDDMQrrP-35" edge="1">
          <mxGeometry relative="1" as="geometry">
            <mxPoint x="850" y="-470" as="sourcePoint" />
            <mxPoint x="960" y="-470" as="targetPoint" />
          </mxGeometry>
        </mxCell>
        <mxCell id="SAhxeZTdPmEhW_cUlzkI-32" value="" style="edgeStyle=orthogonalEdgeStyle;rounded=0;orthogonalLoop=1;jettySize=auto;html=1;exitX=1;exitY=1;exitDx=0;exitDy=0;entryX=0;entryY=0.5;entryDx=0;entryDy=0;" parent="WIyWlLk6GJQsqaUBKTNV-1" source="dnGMem7ugePHwDDMQrrP-15" target="dnGMem7ugePHwDDMQrrP-34" edge="1">
          <mxGeometry relative="1" as="geometry">
            <mxPoint x="750" y="-340" as="sourcePoint" />
            <mxPoint x="860" y="-340" as="targetPoint" />
          </mxGeometry>
        </mxCell>
        <mxCell id="SAhxeZTdPmEhW_cUlzkI-33" value="" style="edgeStyle=orthogonalEdgeStyle;rounded=0;orthogonalLoop=1;jettySize=auto;html=1;exitX=0;exitY=1;exitDx=0;exitDy=0;entryX=0.5;entryY=0;entryDx=0;entryDy=0;" parent="WIyWlLk6GJQsqaUBKTNV-1" source="dnGMem7ugePHwDDMQrrP-16" target="dnGMem7ugePHwDDMQrrP-38" edge="1">
          <mxGeometry relative="1" as="geometry">
            <mxPoint x="180" y="-610" as="sourcePoint" />
            <mxPoint x="272" y="-668" as="targetPoint" />
          </mxGeometry>
        </mxCell>
        <mxCell id="SAhxeZTdPmEhW_cUlzkI-34" value="" style="edgeStyle=orthogonalEdgeStyle;rounded=0;orthogonalLoop=1;jettySize=auto;html=1;exitX=1;exitY=1;exitDx=0;exitDy=0;entryX=0.5;entryY=0;entryDx=0;entryDy=0;" parent="WIyWlLk6GJQsqaUBKTNV-1" source="dnGMem7ugePHwDDMQrrP-16" target="dnGMem7ugePHwDDMQrrP-39" edge="1">
          <mxGeometry relative="1" as="geometry">
            <mxPoint x="280" y="-620" as="sourcePoint" />
            <mxPoint x="372" y="-678" as="targetPoint" />
          </mxGeometry>
        </mxCell>
        <mxCell id="SAhxeZTdPmEhW_cUlzkI-35" value="numberOfScooterDeath" style="whiteSpace=wrap;html=1;fillColor=#d5e8d4;strokeColor=#82b366;" parent="WIyWlLk6GJQsqaUBKTNV-1" vertex="1">
          <mxGeometry x="-1370" y="922.5" width="160" height="30" as="geometry" />
        </mxCell>
        <mxCell id="SAhxeZTdPmEhW_cUlzkI-36" value="numberOfScooterInjuries" style="whiteSpace=wrap;html=1;fillColor=#d5e8d4;strokeColor=#82b366;" parent="WIyWlLk6GJQsqaUBKTNV-1" vertex="1">
          <mxGeometry x="-1370" y="982.5" width="160" height="30" as="geometry" />
        </mxCell>
        <mxCell id="SAhxeZTdPmEhW_cUlzkI-41" value="" style="endArrow=classic;html=1;rounded=0;exitX=0;exitY=0.5;exitDx=0;exitDy=0;entryX=1;entryY=0.5;entryDx=0;entryDy=0;" parent="WIyWlLk6GJQsqaUBKTNV-1" source="dnGMem7ugePHwDDMQrrP-47" target="SAhxeZTdPmEhW_cUlzkI-35" edge="1">
          <mxGeometry width="50" height="50" relative="1" as="geometry">
            <mxPoint x="-1180" y="980" as="sourcePoint" />
            <mxPoint x="-1130" y="930" as="targetPoint" />
          </mxGeometry>
        </mxCell>
        <mxCell id="SAhxeZTdPmEhW_cUlzkI-43" value="" style="endArrow=classic;html=1;rounded=0;exitX=0;exitY=0.5;exitDx=0;exitDy=0;entryX=1;entryY=0.5;entryDx=0;entryDy=0;" parent="WIyWlLk6GJQsqaUBKTNV-1" source="dnGMem7ugePHwDDMQrrP-47" target="SAhxeZTdPmEhW_cUlzkI-36" edge="1">
          <mxGeometry width="50" height="50" relative="1" as="geometry">
            <mxPoint x="-1170" y="980" as="sourcePoint" />
            <mxPoint x="-1230" y="940" as="targetPoint" />
          </mxGeometry>
        </mxCell>
        <mxCell id="SAhxeZTdPmEhW_cUlzkI-44" value="numberOfPedestrianDeath" style="whiteSpace=wrap;html=1;fillColor=#d5e8d4;strokeColor=#82b366;" parent="WIyWlLk6GJQsqaUBKTNV-1" vertex="1">
          <mxGeometry x="-1370" y="800" width="160" height="30" as="geometry" />
        </mxCell>
        <mxCell id="SAhxeZTdPmEhW_cUlzkI-45" value="numberOfPedestrianInjuries" style="whiteSpace=wrap;html=1;fillColor=#d5e8d4;strokeColor=#82b366;" parent="WIyWlLk6GJQsqaUBKTNV-1" vertex="1">
          <mxGeometry x="-1370" y="860" width="160" height="30" as="geometry" />
        </mxCell>
        <mxCell id="SAhxeZTdPmEhW_cUlzkI-46" value="" style="endArrow=classic;html=1;rounded=0;exitX=0;exitY=0.5;exitDx=0;exitDy=0;entryX=1;entryY=0.5;entryDx=0;entryDy=0;" parent="WIyWlLk6GJQsqaUBKTNV-1" target="SAhxeZTdPmEhW_cUlzkI-44" edge="1">
          <mxGeometry width="50" height="50" relative="1" as="geometry">
            <mxPoint x="-1150" y="845.5" as="sourcePoint" />
            <mxPoint x="-1130" y="807.5" as="targetPoint" />
          </mxGeometry>
        </mxCell>
        <mxCell id="SAhxeZTdPmEhW_cUlzkI-47" value="" style="endArrow=classic;html=1;rounded=0;exitX=0;exitY=0.5;exitDx=0;exitDy=0;entryX=1;entryY=0.5;entryDx=0;entryDy=0;" parent="WIyWlLk6GJQsqaUBKTNV-1" target="SAhxeZTdPmEhW_cUlzkI-45" edge="1">
          <mxGeometry width="50" height="50" relative="1" as="geometry">
            <mxPoint x="-1150" y="845.5" as="sourcePoint" />
            <mxPoint x="-1230" y="817.5" as="targetPoint" />
          </mxGeometry>
        </mxCell>
        <mxCell id="SAhxeZTdPmEhW_cUlzkI-48" value="numberOfMotorcyclistDeath" style="whiteSpace=wrap;html=1;fillColor=#d5e8d4;strokeColor=#82b366;" parent="WIyWlLk6GJQsqaUBKTNV-1" vertex="1">
          <mxGeometry x="-1370" y="680" width="160" height="30" as="geometry" />
        </mxCell>
        <mxCell id="SAhxeZTdPmEhW_cUlzkI-49" value="numberOfMotorcyclistInjuries" style="whiteSpace=wrap;html=1;fillColor=#d5e8d4;strokeColor=#82b366;" parent="WIyWlLk6GJQsqaUBKTNV-1" vertex="1">
          <mxGeometry x="-1370" y="740" width="160" height="30" as="geometry" />
        </mxCell>
        <mxCell id="SAhxeZTdPmEhW_cUlzkI-50" value="" style="endArrow=classic;html=1;rounded=0;exitX=0;exitY=0.5;exitDx=0;exitDy=0;entryX=1;entryY=0.5;entryDx=0;entryDy=0;" parent="WIyWlLk6GJQsqaUBKTNV-1" target="SAhxeZTdPmEhW_cUlzkI-48" edge="1">
          <mxGeometry width="50" height="50" relative="1" as="geometry">
            <mxPoint x="-1150" y="725.5" as="sourcePoint" />
            <mxPoint x="-1130" y="687.5" as="targetPoint" />
          </mxGeometry>
        </mxCell>
        <mxCell id="SAhxeZTdPmEhW_cUlzkI-51" value="" style="endArrow=classic;html=1;rounded=0;exitX=0;exitY=0.5;exitDx=0;exitDy=0;entryX=1;entryY=0.5;entryDx=0;entryDy=0;" parent="WIyWlLk6GJQsqaUBKTNV-1" target="SAhxeZTdPmEhW_cUlzkI-49" edge="1">
          <mxGeometry width="50" height="50" relative="1" as="geometry">
            <mxPoint x="-1150" y="725.5" as="sourcePoint" />
            <mxPoint x="-1230" y="697.5" as="targetPoint" />
          </mxGeometry>
        </mxCell>
        <mxCell id="SAhxeZTdPmEhW_cUlzkI-52" value="numberOfDriverDeath" style="whiteSpace=wrap;html=1;fillColor=#d5e8d4;strokeColor=#82b366;" parent="WIyWlLk6GJQsqaUBKTNV-1" vertex="1">
          <mxGeometry x="-1370" y="550" width="160" height="30" as="geometry" />
        </mxCell>
        <mxCell id="SAhxeZTdPmEhW_cUlzkI-53" value="numberOfDriverInjuries" style="whiteSpace=wrap;html=1;fillColor=#d5e8d4;strokeColor=#82b366;" parent="WIyWlLk6GJQsqaUBKTNV-1" vertex="1">
          <mxGeometry x="-1370" y="610" width="160" height="30" as="geometry" />
        </mxCell>
        <mxCell id="SAhxeZTdPmEhW_cUlzkI-54" value="" style="endArrow=classic;html=1;rounded=0;exitX=0;exitY=0.5;exitDx=0;exitDy=0;entryX=1;entryY=0.5;entryDx=0;entryDy=0;" parent="WIyWlLk6GJQsqaUBKTNV-1" target="SAhxeZTdPmEhW_cUlzkI-52" edge="1">
          <mxGeometry width="50" height="50" relative="1" as="geometry">
            <mxPoint x="-1150" y="595.5" as="sourcePoint" />
            <mxPoint x="-1130" y="557.5" as="targetPoint" />
          </mxGeometry>
        </mxCell>
        <mxCell id="SAhxeZTdPmEhW_cUlzkI-55" value="" style="endArrow=classic;html=1;rounded=0;exitX=0;exitY=0.5;exitDx=0;exitDy=0;entryX=1;entryY=0.5;entryDx=0;entryDy=0;" parent="WIyWlLk6GJQsqaUBKTNV-1" target="SAhxeZTdPmEhW_cUlzkI-53" edge="1">
          <mxGeometry width="50" height="50" relative="1" as="geometry">
            <mxPoint x="-1150" y="595.5" as="sourcePoint" />
            <mxPoint x="-1230" y="567.5" as="targetPoint" />
          </mxGeometry>
        </mxCell>
        <mxCell id="SAhxeZTdPmEhW_cUlzkI-56" value="numberOfCyclistDeath" style="whiteSpace=wrap;html=1;fillColor=#d5e8d4;strokeColor=#82b366;" parent="WIyWlLk6GJQsqaUBKTNV-1" vertex="1">
          <mxGeometry x="-1370" y="430" width="160" height="30" as="geometry" />
        </mxCell>
        <mxCell id="SAhxeZTdPmEhW_cUlzkI-57" value="numberOfCyclistInjuries" style="whiteSpace=wrap;html=1;fillColor=#d5e8d4;strokeColor=#82b366;" parent="WIyWlLk6GJQsqaUBKTNV-1" vertex="1">
          <mxGeometry x="-1370" y="490" width="160" height="30" as="geometry" />
        </mxCell>
        <mxCell id="SAhxeZTdPmEhW_cUlzkI-58" value="" style="endArrow=classic;html=1;rounded=0;exitX=0;exitY=0.5;exitDx=0;exitDy=0;entryX=1;entryY=0.5;entryDx=0;entryDy=0;" parent="WIyWlLk6GJQsqaUBKTNV-1" target="SAhxeZTdPmEhW_cUlzkI-56" edge="1">
          <mxGeometry width="50" height="50" relative="1" as="geometry">
            <mxPoint x="-1150" y="475.5" as="sourcePoint" />
            <mxPoint x="-1130" y="437.5" as="targetPoint" />
          </mxGeometry>
        </mxCell>
        <mxCell id="SAhxeZTdPmEhW_cUlzkI-59" value="" style="endArrow=classic;html=1;rounded=0;exitX=0;exitY=0.5;exitDx=0;exitDy=0;entryX=1;entryY=0.5;entryDx=0;entryDy=0;" parent="WIyWlLk6GJQsqaUBKTNV-1" target="SAhxeZTdPmEhW_cUlzkI-57" edge="1">
          <mxGeometry width="50" height="50" relative="1" as="geometry">
            <mxPoint x="-1150" y="475.5" as="sourcePoint" />
            <mxPoint x="-1230" y="447.5" as="targetPoint" />
          </mxGeometry>
        </mxCell>
        <mxCell id="SAhxeZTdPmEhW_cUlzkI-60" value="&lt;h1 style=&quot;margin-top: 0px;&quot;&gt;&lt;font style=&quot;font-size: 80px;&quot;&gt;&lt;u&gt;BTP Ontology&lt;/u&gt;&lt;/font&gt;&lt;/h1&gt;" style="text;html=1;whiteSpace=wrap;overflow=hidden;rounded=0;" parent="WIyWlLk6GJQsqaUBKTNV-1" vertex="1">
          <mxGeometry x="-1600" y="-1120" width="640" height="140" as="geometry" />
        </mxCell>
        <mxCell id="R8v_H8U9PWbI-9yVGPfV-0" value="hasProjectType" style="edgeStyle=orthogonalEdgeStyle;rounded=0;orthogonalLoop=1;jettySize=auto;html=1;exitX=0.309;exitY=0.029;exitDx=0;exitDy=0;entryX=0.307;entryY=0.993;entryDx=0;entryDy=0;exitPerimeter=0;entryPerimeter=0;" parent="WIyWlLk6GJQsqaUBKTNV-1" source="YD-9-609h7HuIPEXH6Xw-2" target="YD-9-609h7HuIPEXH6Xw-8" edge="1">
          <mxGeometry x="0.1669" y="-1" relative="1" as="geometry">
            <Array as="points" />
            <mxPoint x="1030" y="130" as="sourcePoint" />
            <mxPoint x="1000" y="-30" as="targetPoint" />
            <mxPoint as="offset" />
          </mxGeometry>
        </mxCell>
        <mxCell id="4FeC4OMOb26CJQ-80beb-2" value="" style="endArrow=classic;html=1;rounded=0;exitX=0.359;exitY=0.019;exitDx=0;exitDy=0;exitPerimeter=0;entryX=0.36;entryY=0.982;entryDx=0;entryDy=0;entryPerimeter=0;edgeStyle=orthogonalEdgeStyle;" edge="1" parent="WIyWlLk6GJQsqaUBKTNV-1" source="QVhbbQfxDJ9Yx0kp6-2R-1" target="QVhbbQfxDJ9Yx0kp6-2R-0">
          <mxGeometry relative="1" as="geometry">
            <mxPoint x="490" y="420" as="sourcePoint" />
            <mxPoint x="590" y="420" as="targetPoint" />
            <Array as="points">
              <mxPoint x="439" y="440" />
              <mxPoint x="390" y="440" />
              <mxPoint x="390" y="330" />
              <mxPoint x="439" y="330" />
            </Array>
          </mxGeometry>
        </mxCell>
        <mxCell id="4FeC4OMOb26CJQ-80beb-3" value="isArchToRoad" style="edgeLabel;resizable=0;html=1;;align=center;verticalAlign=middle;" connectable="0" vertex="1" parent="4FeC4OMOb26CJQ-80beb-2">
          <mxGeometry relative="1" as="geometry">
            <mxPoint x="1" y="-5" as="offset" />
          </mxGeometry>
        </mxCell>
        <mxCell id="4FeC4OMOb26CJQ-80beb-6" value="" style="endArrow=classic;html=1;rounded=0;exitX=0.638;exitY=0.02;exitDx=0;exitDy=0;exitPerimeter=0;edgeStyle=orthogonalEdgeStyle;" edge="1" parent="WIyWlLk6GJQsqaUBKTNV-1" source="QVhbbQfxDJ9Yx0kp6-2R-1">
          <mxGeometry relative="1" as="geometry">
            <mxPoint x="489" y="430" as="sourcePoint" />
            <mxPoint x="489" y="310" as="targetPoint" />
            <Array as="points">
              <mxPoint x="489" y="440" />
              <mxPoint x="540" y="440" />
              <mxPoint x="540" y="328" />
              <mxPoint x="489" y="328" />
            </Array>
          </mxGeometry>
        </mxCell>
        <mxCell id="4FeC4OMOb26CJQ-80beb-7" value="isArchFromRoad" style="edgeLabel;resizable=0;html=1;;align=center;verticalAlign=middle;" connectable="0" vertex="1" parent="4FeC4OMOb26CJQ-80beb-6">
          <mxGeometry relative="1" as="geometry">
            <mxPoint x="1" y="-6" as="offset" />
          </mxGeometry>
        </mxCell>
        <mxCell id="4FeC4OMOb26CJQ-80beb-12" value="" style="endArrow=classic;html=1;rounded=0;edgeStyle=orthogonalEdgeStyle;exitX=1;exitY=0.5;exitDx=0;exitDy=0;entryX=1;entryY=0.5;entryDx=0;entryDy=0;" edge="1" parent="WIyWlLk6GJQsqaUBKTNV-1" source="YD-9-609h7HuIPEXH6Xw-22" target="QVhbbQfxDJ9Yx0kp6-2R-1">
          <mxGeometry relative="1" as="geometry">
            <mxPoint x="670" y="680" as="sourcePoint" />
            <mxPoint x="840" y="550" as="targetPoint" />
            <Array as="points">
              <mxPoint x="920" y="825" />
              <mxPoint x="920" y="505" />
            </Array>
          </mxGeometry>
        </mxCell>
        <mxCell id="4FeC4OMOb26CJQ-80beb-13" value="isDeploymentDate" style="edgeLabel;resizable=0;html=1;;align=center;verticalAlign=middle;" connectable="0" vertex="1" parent="4FeC4OMOb26CJQ-80beb-12">
          <mxGeometry relative="1" as="geometry">
            <mxPoint x="-138" as="offset" />
          </mxGeometry>
        </mxCell>
        <mxCell id="4FeC4OMOb26CJQ-80beb-16" value="" style="endArrow=classic;html=1;rounded=0;edgeStyle=orthogonalEdgeStyle;exitX=1;exitY=0;exitDx=0;exitDy=0;entryX=0;entryY=0.5;entryDx=0;entryDy=0;" edge="1" parent="WIyWlLk6GJQsqaUBKTNV-1" source="YD-9-609h7HuIPEXH6Xw-0" target="QVhbbQfxDJ9Yx0kp6-2R-0">
          <mxGeometry relative="1" as="geometry">
            <mxPoint x="50" y="260" as="sourcePoint" />
            <mxPoint x="330" y="250" as="targetPoint" />
            <Array as="points">
              <mxPoint x="-30" y="413" />
              <mxPoint x="-30" y="265" />
            </Array>
          </mxGeometry>
        </mxCell>
        <mxCell id="4FeC4OMOb26CJQ-80beb-17" value="isDistrict" style="edgeLabel;resizable=0;html=1;;align=center;verticalAlign=middle;" connectable="0" vertex="1" parent="4FeC4OMOb26CJQ-80beb-16">
          <mxGeometry relative="1" as="geometry">
            <mxPoint x="135" as="offset" />
          </mxGeometry>
        </mxCell>
        <mxCell id="4FeC4OMOb26CJQ-80beb-18" value="isNode" style="edgeStyle=orthogonalEdgeStyle;rounded=0;orthogonalLoop=1;jettySize=auto;html=1;exitX=0.646;exitY=0.029;exitDx=0;exitDy=0;exitPerimeter=0;entryX=0.645;entryY=0.984;entryDx=0;entryDy=0;entryPerimeter=0;" edge="1" parent="WIyWlLk6GJQsqaUBKTNV-1" source="QVhbbQfxDJ9Yx0kp6-2R-2" target="QVhbbQfxDJ9Yx0kp6-2R-1">
          <mxGeometry relative="1" as="geometry">
            <mxPoint x="560" y="620" as="sourcePoint" />
            <mxPoint x="510" y="560" as="targetPoint" />
            <Array as="points" />
          </mxGeometry>
        </mxCell>
        <mxCell id="4FeC4OMOb26CJQ-80beb-21" value="" style="endArrow=classic;html=1;rounded=0;exitX=0;exitY=1;exitDx=0;exitDy=0;entryX=1;entryY=1;entryDx=0;entryDy=0;edgeStyle=orthogonalEdgeStyle;" edge="1" parent="WIyWlLk6GJQsqaUBKTNV-1" source="YD-9-609h7HuIPEXH6Xw-2" target="QVhbbQfxDJ9Yx0kp6-2R-0">
          <mxGeometry relative="1" as="geometry">
            <mxPoint x="760" y="300" as="sourcePoint" />
            <mxPoint x="860" y="300" as="targetPoint" />
          </mxGeometry>
        </mxCell>
        <mxCell id="4FeC4OMOb26CJQ-80beb-22" value="isProjectOnRoad" style="edgeLabel;resizable=0;html=1;;align=center;verticalAlign=middle;" connectable="0" vertex="1" parent="4FeC4OMOb26CJQ-80beb-21">
          <mxGeometry relative="1" as="geometry" />
        </mxCell>
        <mxCell id="4FeC4OMOb26CJQ-80beb-24" value="" style="endArrow=classic;html=1;rounded=0;exitX=0.695;exitY=0.967;exitDx=0;exitDy=0;exitPerimeter=0;entryX=0.698;entryY=0.024;entryDx=0;entryDy=0;entryPerimeter=0;edgeStyle=orthogonalEdgeStyle;" edge="1" parent="WIyWlLk6GJQsqaUBKTNV-1" source="YD-9-609h7HuIPEXH6Xw-8" target="YD-9-609h7HuIPEXH6Xw-2">
          <mxGeometry relative="1" as="geometry">
            <mxPoint x="1230" y="130" as="sourcePoint" />
            <mxPoint x="1330" y="130" as="targetPoint" />
          </mxGeometry>
        </mxCell>
        <mxCell id="4FeC4OMOb26CJQ-80beb-25" value="isProjectType" style="edgeLabel;resizable=0;html=1;;align=center;verticalAlign=middle;" connectable="0" vertex="1" parent="4FeC4OMOb26CJQ-80beb-24">
          <mxGeometry relative="1" as="geometry">
            <mxPoint y="-45" as="offset" />
          </mxGeometry>
        </mxCell>
        <mxCell id="4FeC4OMOb26CJQ-80beb-26" value="" style="endArrow=classic;html=1;rounded=0;edgeStyle=orthogonalEdgeStyle;exitX=0.5;exitY=0;exitDx=0;exitDy=0;entryX=1;entryY=0.5;entryDx=0;entryDy=0;" edge="1" parent="WIyWlLk6GJQsqaUBKTNV-1" source="dnGMem7ugePHwDDMQrrP-42" target="YD-9-609h7HuIPEXH6Xw-2">
          <mxGeometry relative="1" as="geometry">
            <mxPoint x="-880" y="270" as="sourcePoint" />
            <mxPoint x="1354.4442749023438" y="210" as="targetPoint" />
            <Array as="points">
              <mxPoint x="-750" y="200" />
              <mxPoint x="-1520" y="200" />
              <mxPoint x="-1520" y="1130" />
              <mxPoint x="1600" y="1130" />
              <mxPoint x="1600" y="265" />
            </Array>
          </mxGeometry>
        </mxCell>
        <mxCell id="4FeC4OMOb26CJQ-80beb-27" value="isProximityArea" style="edgeLabel;resizable=0;html=1;;align=center;verticalAlign=middle;" connectable="0" vertex="1" parent="4FeC4OMOb26CJQ-80beb-26">
          <mxGeometry relative="1" as="geometry">
            <mxPoint x="236" as="offset" />
          </mxGeometry>
        </mxCell>
        <mxCell id="4FeC4OMOb26CJQ-80beb-28" value="" style="endArrow=classic;html=1;rounded=0;edgeStyle=orthogonalEdgeStyle;exitX=0;exitY=1;exitDx=0;exitDy=0;entryX=1;entryY=0;entryDx=0;entryDy=0;" edge="1" parent="WIyWlLk6GJQsqaUBKTNV-1" source="YD-9-609h7HuIPEXH6Xw-3" target="QVhbbQfxDJ9Yx0kp6-2R-0">
          <mxGeometry relative="1" as="geometry">
            <mxPoint x="554" y="70" as="sourcePoint" />
            <mxPoint x="654" y="70" as="targetPoint" />
            <Array as="points">
              <mxPoint x="776" y="120" />
              <mxPoint x="528" y="120" />
            </Array>
          </mxGeometry>
        </mxCell>
        <mxCell id="4FeC4OMOb26CJQ-80beb-29" value="isRoadType" style="edgeLabel;resizable=0;html=1;;align=center;verticalAlign=middle;" connectable="0" vertex="1" parent="4FeC4OMOb26CJQ-80beb-28">
          <mxGeometry relative="1" as="geometry" />
        </mxCell>
        <mxCell id="4FeC4OMOb26CJQ-80beb-32" value="" style="endArrow=classic;html=1;rounded=0;entryX=0.5;entryY=1;entryDx=0;entryDy=0;edgeStyle=orthogonalEdgeStyle;exitX=0.944;exitY=0.264;exitDx=0;exitDy=0;exitPerimeter=0;" edge="1" parent="WIyWlLk6GJQsqaUBKTNV-1" source="QVhbbQfxDJ9Yx0kp6-2R-1" target="QVhbbQfxDJ9Yx0kp6-2R-9">
          <mxGeometry width="50" height="50" relative="1" as="geometry">
            <mxPoint x="560" y="450" as="sourcePoint" />
            <mxPoint x="360" y="470" as="targetPoint" />
          </mxGeometry>
        </mxCell>
        <mxCell id="4FeC4OMOb26CJQ-80beb-33" value="" style="endArrow=classic;html=1;rounded=0;edgeStyle=orthogonalEdgeStyle;exitX=0;exitY=0.5;exitDx=0;exitDy=0;entryX=0;entryY=0.5;entryDx=0;entryDy=0;" edge="1" parent="WIyWlLk6GJQsqaUBKTNV-1" source="YD-9-609h7HuIPEXH6Xw-41" target="QVhbbQfxDJ9Yx0kp6-2R-1">
          <mxGeometry relative="1" as="geometry">
            <mxPoint x="250" y="670" as="sourcePoint" />
            <mxPoint x="350" y="670" as="targetPoint" />
            <Array as="points">
              <mxPoint x="-10" y="825" />
              <mxPoint x="-10" y="505" />
            </Array>
          </mxGeometry>
        </mxCell>
        <mxCell id="4FeC4OMOb26CJQ-80beb-34" value="isSpeedLimit" style="edgeLabel;resizable=0;html=1;;align=center;verticalAlign=middle;" connectable="0" vertex="1" parent="4FeC4OMOb26CJQ-80beb-33">
          <mxGeometry relative="1" as="geometry">
            <mxPoint x="38" as="offset" />
          </mxGeometry>
        </mxCell>
        <mxCell id="4FeC4OMOb26CJQ-80beb-35" value="" style="endArrow=classic;html=1;rounded=0;edgeStyle=orthogonalEdgeStyle;exitX=1;exitY=0.5;exitDx=0;exitDy=0;entryX=1;entryY=1;entryDx=0;entryDy=0;" edge="1" parent="WIyWlLk6GJQsqaUBKTNV-1" source="42lQZNa5xMC4ZWkXNp76-2" target="YD-9-609h7HuIPEXH6Xw-2">
          <mxGeometry relative="1" as="geometry">
            <mxPoint x="1320" y="590" as="sourcePoint" />
            <mxPoint x="1330" y="430" as="targetPoint" />
            <Array as="points">
              <mxPoint x="1300" y="615" />
              <mxPoint x="1300" y="350" />
              <mxPoint x="1248" y="350" />
            </Array>
          </mxGeometry>
        </mxCell>
        <mxCell id="4FeC4OMOb26CJQ-80beb-36" value="isEndYear" style="edgeLabel;resizable=0;html=1;;align=center;verticalAlign=middle;" connectable="0" vertex="1" parent="4FeC4OMOb26CJQ-80beb-35">
          <mxGeometry relative="1" as="geometry" />
        </mxCell>
        <mxCell id="4FeC4OMOb26CJQ-80beb-37" value="" style="endArrow=classic;html=1;rounded=0;edgeStyle=orthogonalEdgeStyle;exitX=0.647;exitY=0.986;exitDx=0;exitDy=0;exitPerimeter=0;entryX=1;entryY=0;entryDx=0;entryDy=0;" edge="1" parent="WIyWlLk6GJQsqaUBKTNV-1" source="YD-9-609h7HuIPEXH6Xw-2" target="42lQZNa5xMC4ZWkXNp76-2">
          <mxGeometry relative="1" as="geometry">
            <mxPoint x="1130" y="450" as="sourcePoint" />
            <mxPoint x="1230" y="450" as="targetPoint" />
            <Array as="points">
              <mxPoint x="1211" y="380" />
              <mxPoint x="1248" y="380" />
            </Array>
          </mxGeometry>
        </mxCell>
        <mxCell id="4FeC4OMOb26CJQ-80beb-38" value="hasEndYear" style="edgeLabel;resizable=0;html=1;;align=center;verticalAlign=middle;" connectable="0" vertex="1" parent="4FeC4OMOb26CJQ-80beb-37">
          <mxGeometry relative="1" as="geometry">
            <mxPoint x="2" y="63" as="offset" />
          </mxGeometry>
        </mxCell>
      </root>
    </mxGraphModel>
  </diagram>
</mxfile>
